<svg width="140" height="48" viewBox="0 0 140 48" fill="none" xmlns="http://www.w3.org/2000/svg">
<g clip-path="url(#clip0_13_165)">
<mask id="mask0_13_165" style="mask-type:luminance" maskUnits="userSpaceOnUse" x="0" y="0" width="41" height="48">
<path d="M40.6583 0.451599H0V47.5484H40.6583V0.451599Z" fill="white"/>
</mask>
<g mask="url(#mask0_13_165)">
<path d="M13.6319 4.36209L0 12.232V18.3369L13.6319 10.4666L27.2632 18.3369V12.232L13.6319 4.36209ZM27.027 43.6892L13.3951 35.8194V29.7154L27.027 37.5852L40.6583 29.7154V35.8194L27.027 43.6892Z" fill="#077CC0"/>
<path d="M0 19.9764L13.6319 12.106L18.9179 15.1583L5.28653 23.0286V38.7694L0 35.7171V19.9764ZM33.9701 8.32146L20.3382 0.451599L15.0517 3.50384L28.6831 11.3737V27.1144L33.9701 24.0622V8.32146Z" fill="#077CC0"/>
<path d="M6.73511 39.6775L6.73562 23.9373L12.0221 20.8851V36.6258L25.6535 44.4957L20.367 47.5484L6.73511 39.6775ZM40.6583 28.0755V12.3348L35.3718 9.2825V25.0227L21.7405 32.8936L27.027 35.9464L40.6583 28.0755Z" fill="#077CC0"/>
</g>
<path d="M63.3022 13.1922C64.3241 13.409 65.1213 13.8581 65.6942 14.5393C66.2671 15.2206 66.5535 16.111 66.5535 17.2103C66.5535 18.3097 66.2671 19.231 65.6942 19.9742C65.129 20.7097 64.1964 21.2748 62.8957 21.6697C61.5951 22.0645 59.8725 22.2619 57.728 22.2619C56.977 22.2619 56.1331 22.2309 55.1964 22.169C54.2673 22.1071 53.4196 22.0258 52.6531 21.9251V5.3187C53.5047 5.12516 54.4493 4.97032 55.4867 4.85419C56.5318 4.73032 57.5344 4.66838 58.4944 4.66838C61.1344 4.66838 63.0583 5.07096 64.266 5.87612C65.4813 6.67354 66.089 7.87741 66.089 9.48773C66.089 10.3935 65.8413 11.1793 65.3458 11.8451C64.858 12.5032 64.177 12.9522 63.3022 13.1922ZM58.9473 7.45548C58.1499 7.45548 57.3447 7.52902 56.5318 7.67612V11.8568H59.1912C60.3293 11.8568 61.1422 11.6787 61.6299 11.3226C62.1254 10.9587 62.3731 10.4013 62.3731 9.65031C62.3731 9.1316 62.2609 8.71354 62.0364 8.39612C61.8196 8.0787 61.4596 7.84257 60.9564 7.68773C60.4609 7.5329 59.7912 7.45548 58.9473 7.45548ZM58.7731 19.4748C59.826 19.4748 60.6544 19.3897 61.2583 19.2193C61.8699 19.0413 62.2996 18.778 62.5473 18.4297C62.8028 18.0813 62.9306 17.6322 62.9306 17.0826C62.9306 16.2542 62.6712 15.6503 62.1525 15.271C61.6338 14.8916 60.7783 14.7019 59.586 14.7019H56.5318V19.3587C57.1977 19.4361 57.9447 19.4748 58.7731 19.4748ZM81.3064 22.0645L79.7735 17.489H72.8755L71.3426 22.0645H67.4755L73.4793 4.87741H79.2045L85.2084 22.0645H81.3064ZM73.8858 14.4581H78.7632L76.3245 7.17677L73.8858 14.4581ZM99.1374 4.87741H102.877V22.0645H98.8819L90.8458 10.4981V22.0645H87.1064V4.87741H91.1013L99.1374 16.4439V4.87741ZM115.25 22.2851C108.832 22.2851 105.623 19.3587 105.623 13.5058C105.623 11.5935 105.998 9.97934 106.749 8.66322C107.5 7.33935 108.603 6.34064 110.059 5.66709C111.522 4.99354 113.306 4.65677 115.412 4.65677C116.783 4.65677 118.095 4.79612 119.349 5.07483V8.2916C118.18 8.02064 116.968 7.88515 115.714 7.88515C113.67 7.88515 112.168 8.33418 111.208 9.23225C110.248 10.1226 109.768 11.5316 109.768 13.4593C109.768 15.4181 110.241 16.8426 111.185 17.7329C112.13 18.6155 113.581 19.0568 115.54 19.0568C116.81 19.0568 118.079 18.8826 119.349 18.5342V21.7393C118.103 22.1032 116.736 22.2851 115.25 22.2851ZM129.359 22.2851C127.57 22.2851 126.026 21.9522 124.725 21.2864C123.424 20.6206 122.422 19.6297 121.717 18.3135C121.013 16.9897 120.661 15.3755 120.661 13.471C120.661 11.5664 121.013 9.95612 121.717 8.63999C122.422 7.31612 123.424 6.32128 124.725 5.65548C126.026 4.98967 127.57 4.65677 129.359 4.65677C131.147 4.65677 132.692 4.99354 133.992 5.66709C135.293 6.3329 136.295 7.32773 137 8.6516C137.704 9.96773 138.057 11.5742 138.057 13.471C138.057 15.3677 137.704 16.978 137 18.3019C136.295 19.618 135.289 20.6129 133.981 21.2864C132.68 21.9522 131.139 22.2851 129.359 22.2851ZM129.359 19.138C130.861 19.138 132.01 18.6813 132.808 17.7677C133.605 16.8542 134.004 15.449 134.004 13.5522C134.004 11.5858 133.601 10.1381 132.796 9.20902C131.999 8.27225 130.853 7.80386 129.359 7.80386C127.872 7.80386 126.726 8.26064 125.921 9.17418C125.116 10.08 124.714 11.4852 124.714 13.3897C124.714 15.3793 125.108 16.8348 125.898 17.7561C126.695 18.6774 127.849 19.138 129.359 19.138Z" fill="#4EBAF9"/>
<path d="M57.6325 45.5109C55.7822 45.5109 54.0635 45.2593 52.4764 44.7561V41.5974C53.2196 41.8529 54.0674 42.0542 55.0196 42.2013C55.9719 42.3406 56.8506 42.4103 57.6558 42.4103C58.8248 42.4103 59.6648 42.2438 60.1758 41.9109C60.6867 41.5703 60.9422 41.0709 60.9422 40.4129C60.9422 40.049 60.8648 39.7471 60.7099 39.5071C60.5551 39.2671 60.2919 39.0619 59.9203 38.8916C59.5564 38.7135 59.0416 38.5471 58.3758 38.3922L57.0287 38.1019C55.3177 37.7303 54.0635 37.1419 53.2661 36.3368C52.4687 35.5239 52.0699 34.4516 52.0699 33.12C52.0699 31.44 52.7048 30.1471 53.9745 29.2413C55.2441 28.3355 57.1216 27.8826 59.6067 27.8826C60.4196 27.8826 61.1977 27.929 61.9409 28.0219C62.6841 28.1148 63.3577 28.2426 63.9616 28.4051V31.5639C63.3809 31.3858 62.7151 31.2464 61.9641 31.1458C61.2209 31.0374 60.4816 30.9832 59.7461 30.9832C58.399 30.9832 57.4351 31.1535 56.8545 31.4942C56.2738 31.8348 55.9835 32.3226 55.9835 32.9574C55.9835 33.3058 56.0493 33.5961 56.1809 33.8284C56.3203 34.0529 56.5487 34.2503 56.8661 34.4206C57.1912 34.5832 57.6441 34.7342 58.2248 34.8735L59.5835 35.1639C61.4338 35.5664 62.7732 36.1742 63.6016 36.9871C64.4377 37.8 64.8555 38.8684 64.8555 40.1922C64.8555 41.2916 64.5652 42.24 63.9848 43.0374C63.4119 43.8348 62.5835 44.4464 61.4996 44.8722C60.4158 45.298 59.1267 45.5109 57.6325 45.5109ZM70.7336 45.2903V31.2851H64.9852V28.1032H80.4652V31.2851H74.7052V45.2903H70.7336ZM92.5161 45.2903L90.9832 40.7148H84.0852L82.5523 45.2903H78.6852L84.689 28.1032H90.4142L96.4181 45.2903H92.5161ZM85.0955 37.6838H89.9729L87.5342 30.4026L85.0955 37.6838ZM112.296 36.929V45.0813C110.686 45.3522 109.161 45.4877 107.721 45.4877C104.229 45.4877 101.62 44.7638 99.8936 43.3161C98.1671 41.8684 97.3039 39.6813 97.3039 36.7548C97.2961 33.8516 98.1748 31.649 99.94 30.1471C101.713 28.6374 104.299 27.8826 107.697 27.8826C109.091 27.8826 110.442 28.0258 111.75 28.3122V31.529C110.543 31.2503 109.292 31.111 107.999 31.111C106.482 31.1187 105.239 31.32 104.272 31.7148C103.312 32.1097 102.595 32.7251 102.123 33.5613C101.659 34.3974 101.426 35.4813 101.426 36.8129C101.426 38.6555 101.918 40.0297 102.901 40.9355C103.892 41.8335 105.414 42.2826 107.465 42.2826C107.845 42.2826 108.22 42.2709 108.592 42.2477V36.929H112.296ZM129.988 36.929V45.0813C128.377 45.3522 126.852 45.4877 125.412 45.4877C121.921 45.4877 119.312 44.7638 117.585 43.3161C115.859 41.8684 114.995 39.6813 114.995 36.7548C114.988 33.8516 115.866 31.649 117.632 30.1471C119.405 28.6374 121.99 27.8826 125.389 27.8826C126.783 27.8826 128.134 28.0258 129.442 28.3122V31.529C128.234 31.2503 126.984 31.111 125.691 31.111C124.174 31.1187 122.931 31.32 121.963 31.7148C121.003 32.1097 120.287 32.7251 119.815 33.5613C119.35 34.3974 119.118 35.4813 119.118 36.8129C119.118 38.6555 119.61 40.0297 120.593 40.9355C121.584 41.8335 123.105 42.2826 125.157 42.2826C125.536 42.2826 125.912 42.2709 126.283 42.2477V36.929H129.988ZM133.291 45.2903V28.1032H137.263V45.2903H133.291Z" fill="#077CC0"/>
</g>
<defs>
<clipPath id="clip0_13_165">
<rect width="140" height="47.0968" fill="white" transform="translate(0 0.451599)"/>
</clipPath>
</defs>
</svg>
